<?xml version="1.0" standalone="no"?>
<!DOCTYPE svg PUBLIC "-//W3C//DTD SVG 20010904//EN"
 "http://www.w3.org/TR/2001/REC-SVG-20010904/DTD/svg10.dtd">
<svg version="1.0" xmlns="http://www.w3.org/2000/svg"
 width="500.000000pt" height="500.000000pt" viewBox="0 0 500.000000 500.000000"
 preserveAspectRatio="xMidYMid meet">

<g transform="translate(0.000000,500.000000) scale(0.100000,-0.100000)"
fill="#000000" stroke="none">
<path d="M3043 4011 c-120 -19 -272 -78 -376 -145 -32 -20 -60 -36 -62 -36 -3
0 -5 32 -5 70 l0 70 -699 0 -698 0 -6 -87 c-4 -49 -14 -115 -23 -148 -22 -84
-85 -215 -139 -291 l-46 -64 125 0 126 0 0 -1175 0 -1175 335 0 335 0 0 1175
0 1175 186 0 c172 0 185 -1 180 -17 -45 -144 -34 -373 26 -512 55 -128 195
-286 341 -384 83 -56 114 -72 447 -235 300 -147 375 -218 374 -353 -2 -123
-67 -207 -193 -251 -57 -20 -85 -23 -211 -23 -139 1 -149 2 -235 34 -161 59
-346 161 -453 249 -37 30 -45 33 -56 21 -8 -8 -84 -133 -170 -278 -180 -305
-175 -267 -41 -356 104 -68 297 -164 409 -204 268 -95 599 -116 921 -60 l61
10 11 85 c24 170 124 313 273 388 91 45 164 60 271 54 l87 -5 21 71 c49 168
54 380 12 506 -47 138 -143 264 -294 385 -117 94 -224 156 -425 247 -431 194
-552 281 -552 396 0 46 29 129 56 161 14 17 55 45 92 62 58 28 78 32 176 36
95 4 125 1 206 -20 122 -32 289 -97 360 -141 l54 -34 133 256 c73 141 132 262
133 269 0 17 -108 89 -194 128 -99 45 -270 99 -396 125 -115 24 -384 35 -477
21z"/>
<path d="M3909 1227 c-68 -36 -103 -93 -107 -175 -4 -83 23 -142 87 -187 56
-40 157 -48 217 -17 131 67 159 250 52 349 -60 57 -173 70 -249 30z"/>
</g>
</svg>
